<svg width="143" height="138" viewBox="0 0 143 138" fill="none" xmlns="http://www.w3.org/2000/svg">
<path fill-rule="evenodd" clip-rule="evenodd" d="M131.238 72.2523C131.438 68.8436 132.117 65.9901 132.684 64.4041C133.796 67.186 134.346 69.8568 134.532 72.2924C136.968 72.4784 139.639 73.0284 142.42 74.1411C140.834 74.7076 137.981 75.3872 134.572 75.5865C134.382 79.2053 133.452 82.017 132.684 83.4571C131.749 80.8403 131.322 78.1486 131.211 75.6134C128.676 75.5022 125.984 75.0757 123.367 74.1411C124.808 73.3731 127.619 72.4424 131.238 72.2523Z" fill="url(#paint0_linear)"/>
<path fill-rule="evenodd" clip-rule="evenodd" d="M104.351 49.8257C104.483 47.5567 104.936 45.6574 105.313 44.6017C106.053 46.4534 106.419 48.2312 106.543 49.8524C108.164 49.9761 109.942 50.3423 111.794 51.0829C110.738 51.46 108.839 51.9123 106.57 52.045C106.443 54.4538 105.824 56.3254 105.313 57.284C104.691 55.5421 104.407 53.7504 104.333 52.0629C102.645 51.9889 100.853 51.705 99.1115 51.0829C100.07 50.5717 101.942 49.9522 104.351 49.8257Z" fill="url(#paint1_linear)"/>
<path fill-rule="evenodd" clip-rule="evenodd" d="M61.0274 33.8479C61.2267 30.4392 61.9063 27.5858 62.4727 25.9998C63.5855 28.7816 64.1355 31.4524 64.3215 33.888C66.7571 34.074 69.4278 34.624 72.2097 35.7367C70.6237 36.3032 67.7702 36.9828 64.3616 37.1821C64.1715 40.8009 63.2408 43.6127 62.4727 45.0528C61.5382 42.436 61.1117 39.7443 61.0004 37.2091C58.4652 37.0978 55.7735 36.6713 53.1566 35.7367C54.5968 34.9687 57.4085 34.038 61.0274 33.8479Z" fill="url(#paint2_linear)"/>
<path fill-rule="evenodd" clip-rule="evenodd" d="M64.7364 112.189C65.0296 107.174 66.0295 102.976 66.8628 100.642C68.5 104.735 69.3092 108.664 69.5828 112.248C73.1661 112.521 77.0954 113.331 81.1881 114.968C78.8547 115.801 74.6567 116.801 69.6417 117.094C69.362 122.418 67.9928 126.555 66.8628 128.674C65.4878 124.824 64.8604 120.864 64.6967 117.134C60.9668 116.97 57.0066 116.343 53.1566 114.968C55.2754 113.838 59.4122 112.468 64.7364 112.189Z" fill="url(#paint3_linear)"/>
<circle cx="95.2053" cy="82.534" r="1.8414" fill="#2F235A"/>
<circle cx="137.463" cy="29.7367" r="1.8414" fill="#FE9076"/>
<circle cx="44.8435" cy="75.2236" r="1.8414" fill="#FFA400"/>
<circle cx="127.37" cy="110.934" r="1.8414" fill="#23BB86"/>
<path d="M132.951 22.0515C128.788 16.3338 117.061 4.12087 103.457 1.01147" stroke="#FE9076" stroke-width="1.60277" stroke-linecap="round"/>
<path d="M37.0741 70.2881C30.921 66.8006 15.1963 60.5222 1.52302 63.3095" stroke="#FFA400" stroke-width="1.60277" stroke-linecap="round"/>
<path d="M121.05 116.283C117.897 119.065 110.311 126.967 105.192 136.314" stroke="#23BB86" stroke-width="1.60277" stroke-linecap="round"/>
<defs>
<linearGradient id="paint0_linear" x1="132.894" y1="66.432" x2="132.894" y2="84.3216" gradientUnits="userSpaceOnUse">
<stop stop-color="#FFE89E"/>
<stop offset="1" stop-color="#FFBF1A"/>
</linearGradient>
<linearGradient id="paint1_linear" x1="105.453" y1="45.9515" x2="105.453" y2="57.8594" gradientUnits="userSpaceOnUse">
<stop stop-color="#FFE89E"/>
<stop offset="1" stop-color="#FFBF1A"/>
</linearGradient>
<linearGradient id="paint2_linear" x1="62.6831" y1="28.0277" x2="62.6831" y2="45.9173" gradientUnits="userSpaceOnUse">
<stop stop-color="#FFE89E"/>
<stop offset="1" stop-color="#FFBF1A"/>
</linearGradient>
<linearGradient id="paint3_linear" x1="67.1724" y1="103.626" x2="67.1724" y2="129.946" gradientUnits="userSpaceOnUse">
<stop stop-color="#FFE89E"/>
<stop offset="1" stop-color="#FFBF1A"/>
</linearGradient>
</defs>
</svg>
