<svg width="67" height="24" viewBox="0 0 67 24" fill="none" xmlns="http://www.w3.org/2000/svg">
<path fill-rule="evenodd" clip-rule="evenodd" d="M27.6704 5.38734C18.876 -2.33606 10.9321 0.931832 6.22509 2.86817C5.70166 3.08349 5.21826 3.28235 4.77816 3.4478L1.8309 3.45328C1.27588 3.45432 0.827885 3.90714 0.832804 4.46214L0.854763 6.93972C0.859628 7.48852 1.30589 7.93085 1.85472 7.93085L3.98559 7.93086C2.4424 21.1817 12.2142 24.7278 20.0293 22.3393C26.9969 20.2099 28.8622 14.1847 29.2348 10.4049C30.7255 7.10238 37.2595 8.62819 37.5183 10.3314C37.5243 10.3711 37.5309 10.4157 37.5382 10.4651L37.5382 10.4654C37.8449 12.5393 39.3901 22.9875 51.1531 23.0022C60.7881 23.0143 63.4013 14.4065 63.5035 10.1011L65.9976 10.079C66.5499 10.0741 66.9936 9.62246 66.9887 9.07019L66.9618 6.03913C66.9569 5.48686 66.5053 5.04313 65.953 5.04803L63.4589 5.07014C57.1826 -1.28806 43.701 -0.69256 38.9525 5.28734C33.7133 4.07907 29.2481 4.85056 27.6704 5.38734ZM15.6723 21.2842C10.2796 21.2842 7.56415 17.0344 6.87412 15.1367C6.08052 13.5496 5.45381 9.41458 7.33274 6.13019C9.72186 1.95396 20.9513 0.789331 24.8847 6.68937C28.818 12.5894 24.8847 21.2842 15.6723 21.2842ZM60.2025 15.1367C59.5124 17.0343 56.7969 21.2842 51.4043 21.2842C42.1919 21.2842 38.2585 12.5894 42.1919 6.68932C46.1253 0.789284 57.3547 1.95391 59.7438 6.13014C61.6228 9.41454 60.996 13.5495 60.2025 15.1367Z" fill="#111111"/>
</svg>
