<svg width="33" height="46" viewBox="0 0 33 46" fill="none" xmlns="http://www.w3.org/2000/svg">
<path d="M27.9862 22.8329C29.1944 22.8329 30.3531 23.3128 31.2074 24.1671C32.0617 25.0214 32.5416 26.1801 32.5416 27.3882V41.0544C32.5416 42.2626 32.0617 43.4212 31.2074 44.2756C30.3531 45.1299 29.1944 45.6098 27.9862 45.6098H5.20928C4.00112 45.6098 2.84244 45.1299 1.98813 44.2756C1.13383 43.4212 0.653893 42.2626 0.653893 41.0544V27.3882C0.653893 26.1801 1.13383 25.0214 1.98813 24.1671C2.84244 23.3128 4.00112 22.8328 5.20928 22.8329V11.4444C5.20928 8.42397 6.40913 5.52727 8.54489 3.39151C10.6806 1.25576 13.5773 0.0559082 16.5978 0.0559082C19.6182 0.0559082 22.5149 1.25576 24.6506 3.39151C26.7864 5.52727 27.9862 8.42397 27.9862 11.4444V22.8329ZM16.5978 38.7767C17.8059 38.7767 18.9646 38.2968 19.8189 37.4425C20.6732 36.5882 21.1531 35.4295 21.1531 34.2213C21.1531 33.0132 20.6732 31.8545 19.8189 31.0002C18.9646 30.1459 17.8059 29.6659 16.5978 29.6659C15.3896 29.6659 14.2309 30.1459 13.3766 31.0002C12.5223 31.8545 12.0424 33.0132 12.0424 34.2213C12.0424 35.4295 12.5223 36.5882 13.3766 37.4425C14.2309 38.2968 15.3896 38.7767 16.5978 38.7767ZM23.4308 22.8329V11.4444C23.4308 9.63213 22.7109 7.89411 21.4295 6.61266C20.148 5.33121 18.41 4.6113 16.5978 4.6113C14.7855 4.6113 13.0475 5.33121 11.766 6.61266C10.4846 7.89411 9.76467 9.63213 9.76467 11.4444V22.8329H23.4308Z" fill="url(#paint0_linear)"/>
<defs>
<linearGradient id="paint0_linear" x1="16.5978" y1="0.0559082" x2="16.5978" y2="45.6098" gradientUnits="userSpaceOnUse">
<stop stop-color="#FFD5B7"/>
<stop offset="1" stop-color="#FFAB6D"/>
</linearGradient>
</defs>
</svg>
